<svg width="121" height="121" viewBox="0 0 121 121" fill="none" xmlns="http://www.w3.org/2000/svg">
<path d="M100.818 0.34167H18.8755L0 20.8539L0.995255 102.949L19.3674 120.475H98.3357L119.202 102.949L120.197 19.8508L100.83 0.330139L100.818 0.34167ZM104.342 95.6735L100.383 98.9942H88.5662L84.997 95.6043L84.9742 93.7133H40.6567L30.4067 83.3822V66.479L40.6567 56.1479H72.3447L77.9387 50.5096V41.5852L72.3447 35.947H35.2114L35.1885 38.1492L31.2304 41.4815H19.4132L15.844 38.0801L15.6953 25.7197L19.2645 21.834H31.6537L35.3258 25.5467L35.3029 27.9681H76.5431L86.7931 38.2991V53.7957L76.5431 64.1268H44.8551L39.2611 69.7651V80.0961L44.8551 85.7344H84.8826L84.8598 83.2439L88.429 79.3582H100.807L104.49 83.0594L104.342 95.6735Z" fill="white"/>
</svg>
